<?xml version="1.0" encoding="UTF-8"?><svg id="Calque_2" xmlns="http://www.w3.org/2000/svg" viewBox="0 0 531.84 322.09"><defs><style>.cls-1,.cls-2{fill:#fff;}.cls-3{fill:#6c2d87;}.cls-4{fill:#9f6fae;}.cls-5{fill:#8e589f;}.cls-6{fill:#b188bd;}.cls-7{fill:#c4a2cc;}.cls-8{fill:#7c4192;}.cls-2{stroke:#fff;stroke-miterlimit:10;}</style></defs><g id="Calque_2-2"><g id="Calque_1-2"><path class="cls-3" d="M3.07,235.69H310.1c3.4,0,6.15,2.76,6.15,6.15v20.76c0,3.4-2.76,6.15-6.15,6.15H3.07v-33.06h0Z"/><path class="cls-8" d="M3.07,202.62H371.42c3.4,0,6.15,2.76,6.15,6.15v20.76c0,3.4-2.76,6.15-6.15,6.15H3.07v-33.06h0Z"/><path class="cls-4" d="M3.07,136.49H391.77c3.4,0,6.15,2.76,6.15,6.15v20.76c0,3.4-2.76,6.15-6.15,6.15H3.07v-33.06h0Z"/><path class="cls-5" d="M3.07,169.56h14.2c3.4,0,6.15,2.76,6.15,6.15v20.76c0,3.4-2.76,6.15-6.15,6.15H3.07v-33.06h0Z"/><path class="cls-6" d="M3.07,103.43H101.36c3.4,0,6.15,2.76,6.15,6.15v20.76c0,3.4-2.76,6.15-6.15,6.15H3.07v-33.06h0Z"/><path class="cls-7" d="M3.07,70.37H330.46c3.4,0,6.15,2.76,6.15,6.15v20.76c0,3.4-2.76,6.15-6.15,6.15H3.07v-33.06h0Z"/><path class="cls-3" d="M525,303.94h-102.37v-6.95c0-1.1-.9-2-2-2s-2,.9-2,2v6.95h-100.37v-6.95c0-1.1-.9-2-2-2s-2,.9-2,2v6.95h-100.37v-6.95c0-1.1-.9-2-2-2s-2,.9-2,2v6.95H109.51v-6.95c0-1.1-.9-2-2-2s-2,.9-2,2v6.95H5.14V2c0-1.1-.9-2-2-2S1.14,.9,1.14,2V305.94c0,1.1,.9,2,2,2H525c1.1,0,2-.89,2-2s-.9-2-2-2Z"/><path class="cls-2" d="M5.88,317.83c0,1.27-.22,2.21-.65,2.83s-1.11,.93-2.03,.93-1.58-.3-2.02-.91-.66-1.5-.68-2.7v-1.45c0-1.25,.22-2.19,.65-2.79s1.11-.91,2.04-.91,1.59,.29,2.03,.88,.66,1.5,.67,2.72v1.41h-.01Zm-1.08-1.49c0-.92-.13-1.59-.39-2.01s-.67-.63-1.22-.63-.96,.21-1.21,.63-.38,1.06-.39,1.93v1.73c0,.92,.13,1.6,.4,2.04s.67,.66,1.22,.66,.93-.21,1.19-.62,.4-1.07,.41-1.96v-1.78h-.01Z"/><path class="cls-2" d="M105.4,317.19l.43-4.25h4.37v1h-3.45l-.26,2.33c.42-.25,.89-.37,1.42-.37,.78,0,1.39,.26,1.85,.77s.69,1.21,.69,2.08-.24,1.57-.71,2.08-1.14,.76-1.99,.76c-.75,0-1.37-.21-1.85-.63s-.75-1-.81-1.73h1.03c.07,.49,.24,.86,.52,1.1s.65,.37,1.11,.37c.5,0,.9-.17,1.19-.52s.43-.82,.43-1.42-.16-1.03-.47-1.37-.72-.52-1.24-.52c-.47,0-.84,.1-1.11,.31l-.29,.23-.87-.22h0Z"/><g><path class="cls-2" d="M209.69,321.46h-1.09v-7.22l-2.19,.8v-.98l3.11-1.17h.17v8.57h0Z"/><path class="cls-2" d="M218.21,317.83c0,1.27-.22,2.21-.65,2.83s-1.11,.93-2.03,.93-1.58-.3-2.02-.91-.66-1.5-.68-2.7v-1.45c0-1.25,.22-2.19,.65-2.79s1.11-.91,2.04-.91,1.59,.29,2.03,.88,.66,1.5,.67,2.72v1.41h0Zm-1.08-1.49c0-.92-.13-1.59-.39-2.01s-.67-.63-1.22-.63-.96,.21-1.21,.63-.38,1.06-.39,1.93v1.73c0,.92,.13,1.6,.4,2.04s.67,.66,1.22,.66,.93-.21,1.19-.62,.4-1.07,.41-1.96v-1.78h0Z"/></g><g><path class="cls-2" d="M313.74,321.46h-1.09v-7.22l-2.19,.8v-.98l3.11-1.17h.17v8.57h0Z"/><path class="cls-2" d="M317.41,317.19l.43-4.25h4.37v1h-3.45l-.26,2.33c.42-.25,.89-.37,1.42-.37,.78,0,1.39,.26,1.85,.77s.69,1.21,.69,2.08-.24,1.57-.71,2.08-1.14,.76-1.99,.76c-.75,0-1.37-.21-1.85-.63s-.75-1-.81-1.73h1.03c.07,.49,.24,.86,.52,1.1s.65,.37,1.11,.37c.5,0,.9-.17,1.19-.52s.43-.82,.43-1.42-.16-1.03-.47-1.37-.72-.52-1.24-.52c-.47,0-.84,.1-1.11,.31l-.29,.23-.87-.22h.01Z"/></g><g><path class="cls-1" d="M304.67,253.79l.48-.38c.17-.14,.45-.2,.8-.2s.65,.11,.87,.36c.23,.25,.34,.59,.34,1.03,0,.48-.1,.84-.31,1.1-.19,.23-.45,.34-.81,.34-.33,0-.59-.08-.78-.25-.18-.15-.3-.42-.35-.79l-.06-.43h-2.01l.04,.54c.07,.87,.4,1.56,.98,2.06,.57,.5,1.3,.75,2.18,.75,1,0,1.79-.31,2.36-.92,.56-.61,.84-1.42,.84-2.42s-.28-1.81-.82-2.42c-.56-.62-1.31-.93-2.22-.93-.29,0-.57,.03-.83,.1l.12-1.06h3.5v-2h-5.32l-.43,4.25"/><polyline class="cls-1" points="300.51 252.53 300.51 248.24 299.84 248.24 296.23 249.56 296.23 251.6 298.42 250.8 298.42 257.81 300.51 257.81"/><polygon class="cls-1" points="354.23 216.71 354.23 218.75 356.42 217.96 356.42 224.96 358.51 224.96 358.51 215.39 357.84 215.39 354.23 216.71"/><path class="cls-1" d="M366.03,220.05c.15-.14,.28-.3,.4-.47,.29-.42,.43-.89,.43-1.42v-1.12s-.16,.14-.16,.14c-.14-.42-.37-.78-.7-1.08-.55-.5-1.28-.76-2.16-.76s-1.6,.26-2.16,.76c-.57,.52-.85,1.22-.85,2.08,0,.52,.14,.99,.41,1.41,.11,.17,.25,.33,.4,.47-.21,.17-.39,.37-.55,.59-.31,.46-.47,.97-.47,1.53,0,.88,.3,1.59,.91,2.13,.58,.52,1.36,.79,2.3,.79s1.69-.26,2.3-.78c.61-.53,.92-1.25,.92-2.14,0-.57-.16-1.08-.48-1.54-.16-.22-.34-.42-.55-.58Zm-1.51-2.57c.17,.17,.25,.4,.25,.71s-.08,.53-.25,.7c-.32,.33-1.04,.33-1.36,0-.18-.18-.25-.39-.25-.7s.08-.55,.26-.73c.09-.09,.23-.2,.5-.24h.17c.28,0,.5,.08,.68,.26Zm-1.5,3.83c.19-.2,.46-.3,.81-.3s.63,.1,.84,.3c.2,.2,.3,.47,.3,.82v.16c-.02,.27-.11,.47-.27,.62-.2,.19-.47,.28-.85,.28s-.66-.1-.86-.29c-.18-.17-.27-.43-.27-.78s.1-.61,.3-.82Z"/><polygon class="cls-1" points="378.06 150.73 378.06 152.77 380.25 151.97 380.25 158.98 382.34 158.98 382.34 149.41 381.67 149.41 378.06 150.73"/><path class="cls-1" d="M389.92,150.48c-.59-.76-1.4-1.14-2.39-1.14-.62,0-1.17,.15-1.65,.43-.47,.28-.85,.71-1.11,1.26-.25,.53-.38,1.12-.38,1.76s.11,1.16,.35,1.67c.24,.53,.59,.94,1.03,1.23,.75,.49,1.8,.6,2.69,.2-.1,.26-.24,.47-.41,.63-.38,.36-.96,.55-1.72,.56h-.73v1.92h.71c1.48-.01,2.6-.46,3.35-1.35,.73-.86,1.1-2.2,1.1-3.96v-.32c0-1.2-.28-2.17-.83-2.89Zm-1.62,1.21c.25,.35,.37,.83,.37,1.44v.32c-.1,.21-.26,.39-.47,.54-.21,.15-.45,.23-.7,.23h-.13c-.24-.03-.43-.14-.59-.36-.22-.29-.32-.67-.32-1.14s.11-.85,.32-1.13c.19-.24,.43-.36,.76-.36,.19,0,.47,.05,.76,.46Z"/><polygon class="cls-1" points="318.56 84.33 318.56 86.37 320.75 85.57 320.75 92.58 322.84 92.58 322.84 83.01 322.17 83.01 318.56 84.33"/><path class="cls-1" d="M328.52,85.99c-.38,0-.72,.05-1.04,.15,.11-.22,.25-.41,.41-.56,.4-.39,.97-.59,1.67-.61h.7v-1.96s-.72,.05-.72,.05c-1.47,.03-2.6,.52-3.35,1.46-.74,.91-1.11,2.23-1.11,3.91v.42c0,1.1,.29,2.02,.87,2.73,.6,.74,1.42,1.13,2.38,1.13s1.72-.32,2.29-.95c.56-.62,.85-1.44,.85-2.45,0-.95-.27-1.74-.79-2.35-.56-.66-1.25-.97-2.16-.97Zm-.97,4.38c-.25-.35-.38-.82-.38-1.41v-.31c.09-.21,.23-.38,.43-.52,.51-.36,1.13-.33,1.47,.11,.21,.27,.31,.64,.31,1.11s-.1,.83-.32,1.1c-.35,.45-1.1,.51-1.53-.09Z"/><path class="cls-1" d="M97.53,118.31c-.29,0-.57,.03-.83,.1l.12-1.06h3.5v-2h-5.32l-.43,4.25h0l1.43,1.27,.48-.38c.17-.14,.44-.2,.8-.2s.65,.11,.87,.36c.23,.25,.34,.6,.34,1.03,0,.49-.1,.85-.32,1.1-.19,.23-.45,.34-.8,.34-.33,0-.59-.08-.78-.25-.18-.15-.3-.42-.35-.79l-.06-.43h-2.01l.04,.54c.07,.86,.4,1.56,.98,2.07,.57,.5,1.3,.75,2.18,.75,1,0,1.79-.31,2.36-.92,.56-.61,.84-1.42,.84-2.42s-.28-1.81-.82-2.42c-.56-.62-1.31-.94-2.22-.94Z"/><polygon class="cls-1" points="10.33 182.97 10.33 185.01 12.52 184.21 12.52 191.22 14.61 191.22 14.61 181.65 13.94 181.65 10.33 182.97"/></g><g><path class="cls-2" d="M420.17,321.46h-5.59v-.78l2.95-3.28c.44-.5,.74-.9,.91-1.21s.25-.63,.25-.96c0-.45-.13-.81-.4-1.1s-.63-.43-1.08-.43c-.54,0-.96,.15-1.26,.46s-.45,.73-.45,1.28h-1.08c0-.79,.25-1.42,.76-1.9s1.18-.73,2.03-.73c.79,0,1.42,.21,1.88,.62s.69,.97,.69,1.66c0,.84-.54,1.84-1.61,3l-2.29,2.48h4.28v.88h0Z"/><path class="cls-2" d="M426.67,317.83c0,1.27-.22,2.21-.65,2.83s-1.11,.93-2.03,.93-1.58-.3-2.02-.91-.66-1.5-.68-2.7v-1.45c0-1.25,.22-2.19,.65-2.79s1.11-.91,2.04-.91,1.59,.29,2.03,.88,.66,1.5,.67,2.72v1.41h-.01Zm-1.08-1.49c0-.92-.13-1.59-.39-2.01s-.67-.63-1.22-.63-.96,.21-1.21,.63-.38,1.06-.39,1.93v1.73c0,.92,.13,1.6,.4,2.04s.67,.66,1.22,.66,.93-.21,1.19-.62,.4-1.07,.41-1.96v-1.78h0Z"/></g><g><path class="cls-2" d="M524.73,321.46h-5.59v-.78l2.95-3.28c.44-.5,.74-.9,.91-1.21s.25-.63,.25-.96c0-.45-.13-.81-.4-1.1s-.63-.43-1.08-.43c-.54,0-.96,.15-1.26,.46s-.45,.73-.45,1.28h-1.08c0-.79,.25-1.42,.76-1.9s1.18-.73,2.03-.73c.79,0,1.42,.21,1.88,.62s.69,.97,.69,1.66c0,.84-.54,1.84-1.61,3l-2.29,2.48h4.28v.88h.01Z"/><path class="cls-2" d="M530.14,312.93v.92h-.2c-.84,.02-1.52,.27-2.02,.75s-.79,1.17-.87,2.04c.45-.52,1.06-.77,1.84-.77s1.33,.26,1.78,.79,.67,1.2,.67,2.03c0,.88-.24,1.58-.72,2.11s-1.12,.79-1.92,.79-1.48-.31-1.99-.94-.76-1.43-.76-2.42v-.42c0-1.57,.33-2.77,1-3.6s1.67-1.25,2.99-1.27h.2Zm-1.42,3.83c-.37,0-.71,.11-1.03,.33s-.53,.5-.65,.84v.4c0,.7,.16,1.27,.47,1.7s.71,.64,1.18,.64,.87-.18,1.15-.54,.42-.83,.42-1.41-.14-1.06-.42-1.42-.66-.54-1.13-.54h.01Z"/></g></g></g></svg>