<?xml version="1.0" encoding="UTF-8"?><svg id="Calque_2" xmlns="http://www.w3.org/2000/svg" viewBox="0 0 453.18 83.47"><defs><style>.cls-1{fill:#fcfcfc;}</style></defs><g id="Calque_1-2"><g><g><path class="cls-1" d="M136.86,38.66s.01,0,.02,.01c0-.01,0-.02,0-.03v.02Z"/><path class="cls-1" d="M105,59.99c-.69,0-1.01-.21-1.01-.64,0-.27,.05-.48,.16-.8l6.08-13.5-21.08,13.5c-1.55,1.01-2.88,1.44-3.95,1.44h-3.09c-1.07,0-2.13-.43-2.94-1.44l-10.83-13.5-6.03,13.5c-.43,.96-1.12,1.44-2.08,1.44h-4.96c-.69,0-1.01-.21-1.01-.64,0-.27,.05-.48,.21-.8l14.94-33.56c.43-.91,1.12-1.39,2.08-1.39h4.22c1.12,0,2.13,.48,2.77,1.39l14.94,22.62,36.82-22.62c1.55-.91,3.09-1.39,4.38-1.39h4.27c.64,0,.96,.21,.96,.69,0,.21,0,.43-.16,.69l-14.99,33.56c-.43,.96-1.07,1.44-2.03,1.44h-17.66Z"/></g><g><path class="cls-1" d="M130.18,59.99c-.64,0-.96-.21-.96-.64,0-.27,.05-.48,.16-.8l1.55-3.42c.43-.96,1.12-1.44,2.08-1.44h30.47l-19.8-11.42c-3.15-1.81-4.16-4.06-4.16-6.19,0-6.03,6.62-12.49,15.47-12.49h39.33c.69,0,1.01,.21,1.01,.69,0,.21-.05,.43-.21,.69l-1.49,3.42c-.43,.96-1.17,1.44-2.08,1.44h-29.56l19.8,11.42c3.25,1.87,4.16,4.16,4.16,6.24,0,6.03-6.51,12.49-15.47,12.49h-40.29Z"/><path class="cls-1" d="M128.7,22.42l.03-.02c2.01-1.18,4.05-1.8,5.89-1.8h4.27c2.21,0,3.52,1.35,3.86,2.88,2.05-1.45,4.44-2.55,7-3.2C135.28,10.01,119.95,0,97.05,0H27.38c-1.1,0-2.09,.65-2.53,1.65l-7.33,16.57c-.37,.84,.24,1.78,1.16,1.78H97.05c9.33,0,16.8,2.99,23.79,7.24l7.83-4.81,.03-.02Z"/></g><path class="cls-1" d="M.96,59.99c-.64,0-.96-.21-.96-.64,0-.27,.05-.48,.16-.8L15.15,24.99c.43-.91,1.12-1.39,2.03-1.39h18.36c.69,0,1.01,.21,1.01,.69,0,.21-.05,.43-.21,.69l-14.94,33.56c-.43,.96-1.12,1.44-2.03,1.44H.96Z"/><path class="cls-1" d="M28.33,59.99c-.64,0-.96-.21-.96-.64,0-.27,.05-.48,.16-.8l14.99-33.56c.43-.91,1.12-1.39,2.03-1.39h18.36c.69,0,1.01,.21,1.01,.69,0,.21-.05,.43-.21,.69l-14.94,33.56c-.43,.96-1.12,1.44-2.03,1.44H28.33Z"/><path class="cls-1" d="M293.44,59.99c-1.17,0-1.87-.37-2.29-1.07l-11.1-21.4-23.53,16.17h24.23c.69,0,.96,.27,.96,.69,0,.16-.05,.48-.21,.75l-1.49,3.42c-.43,.96-1.12,1.44-2.03,1.44h-35.59c-.48,0-.69-.21-.69-.64,0-.37,.32-.75,.85-1.12l48.45-33.62c.96-.64,1.81-1.01,2.72-1.01h3.47c1.01,0,1.55,.37,1.92,1.01l18.04,33.51c.05,.21,.11,.43,.11,.64,0,.64-.53,1.23-1.71,1.23h-22.09Z"/><path class="cls-1" d="M350.42,47.13c-.64,0-.96-.27-.96-.69,0-.21,0-.48,.16-.75l1.55-3.42c.43-.96,1.07-1.44,2.03-1.44h6.78c5.18,0,9.12-2.77,9.12-7.52,0-2.29-1.71-3.47-4.21-3.47h-11.42l-12.75,28.71c-.43,.96-1.12,1.44-2.08,1.44h-18.3c-.64,0-.96-.21-.96-.64,0-.27,.05-.48,.16-.8l14.99-33.56c.43-.91,1.07-1.39,2.03-1.39h45.57c5.23,0,8.48,2.83,8.48,7.63,0,9.6-9.87,15.9-20.28,15.9h-19.9Z"/><path class="cls-1" d="M398.7,59.99c-7.26,0-11.37-4.8-11.37-11.53,0-12.43,13.5-24.87,27.59-24.87h37.3c.64,0,.96,.21,.96,.69,0,.21-.05,.43-.16,.69l-1.55,3.42c-.43,.96-1.12,1.44-2.08,1.44h-24.81c-4.59,0-7.1,1.76-9.98,8.32l-2.56,5.82c-1.33,2.99-2.03,5.12-2.03,6.67,0,2.19,1.39,3.04,3.95,3.04h25.03c.64,0,.96,.27,.96,.69,0,.16-.05,.48-.21,.75l-1.49,3.42c-.43,.96-1.12,1.44-2.08,1.44h-37.46Zm18.84-16.7c-.64,0-.96-.21-.96-.64,0-.21,.05-.48,.21-.75l1.49-3.47c.43-.91,1.12-1.39,2.08-1.39h25.45c.75,0,1.12,.16,1.12,.53,0,.11-.05,.27-.11,.43l-1.97,4.32c-.27,.64-.91,.96-1.81,.96h-25.51Z"/><g><path class="cls-1" d="M201.73,59.99c-7.26,0-11.37-4.8-11.37-11.53,0-12.43,13.5-24.87,27.59-24.87h36.34c.64,0,.96,.21,.96,.69,0,.21,0,.43-.16,.69l-1.55,3.42c-.43,.96-1.12,1.44-2.08,1.44h-23.85c-4.59,0-7.1,1.76-9.98,8.32l-2.56,5.82c-1.33,2.99-2.03,5.12-2.03,6.67,0,2.19,1.39,3.04,3.95,3.04h24.07c.69,0,.96,.27,.96,.69,0,.16-.05,.48-.21,.75l-1.49,3.42c-.43,.96-1.12,1.44-2.03,1.44h-36.55Z"/><path class="cls-1" d="M434.17,63.47l-232.45,.52c-6.78,0-11.91-3.4-14.14-8.91-2.14,3.41-5.67,6.31-10.21,7.81,15.3,10.22,35.06,20.58,57.14,20.58h191.31c1.16,0,2.2-.7,2.65-1.77l6.86-16.48c.35-.83-.27-1.75-1.17-1.75Z"/></g></g></g></svg>